# xmcd
#
# Track frame offsets:
#	150
#	19563
#	41846
#	54394
#	74911
#	102974
#	125253
#	155134
#	176526
#	201950
#	220101
#	237836
#	258101
#	279609
#	290461
#	307253
#
# Disc length: 4382 seconds
#
# Revision: 0
# Processed by: cddbd v1.5.1PL2 Copyright (c) Steve Scherf et al.
# Submitted via: audiograbber 1.81.02
#
DISCID=f3111c10
DTITLE=Albert Frey - Für den König
DYEAR=2006
DGENRE=Pop
TTITLE0=Alles, was atmet (Psalm 150)
TTITLE1=Du bist unser König
TTITLE2=Christ ist erstanden
TTITLE3=Morgenstern
TTITLE4=Für den König
TTITLE5=Löwe von Juda
TTITLE6=Wir alle
TTITLE7=Es ist vollbracht
TTITLE8=Deine Last ist leicht
TTITLE9=Deine Liebe
TTITLE10=Vater des Lebens
TTITLE11=Gepriesen sei der Herr (Benedictus)
TTITLE12=Die Herrlichkeit des Herrn (Psalm 104)
TTITLE13=Kyrie
TTITLE14=Voller Ehrfurcht
TTITLE15=König Jesus
EXTD=www.gerth.de - ArtNo. 946315
EXTT0=
EXTT1=
EXTT2=
EXTT3=
EXTT4=
EXTT5=
EXTT6=
EXTT7=
EXTT8=
EXTT9=
EXTT10=
EXTT11=
EXTT12=
EXTT13=
EXTT14=
EXTT15=
PLAYORDER=
